<svg width="800" height="800" viewBox="0 0 800 800" fill="none" xmlns="http://www.w3.org/2000/svg">
<path d="M130.434 217.391H26.0875C11.6859 217.391 0 229.067 0 243.478V765.217C0 779.628 11.6859 791.305 26.0875 791.305H130.436C144.837 791.305 156.523 779.628 156.523 765.217V243.478C156.522 229.067 144.836 217.391 130.434 217.391ZM78.2641 686.956C63.8703 686.956 52.1766 675.262 52.1766 660.869C52.1766 646.475 63.8703 634.781 78.2641 634.781C92.6578 634.781 104.352 646.475 104.352 660.869C104.352 675.262 92.6594 686.956 78.2641 686.956Z" fill="#8B2CF5"/>
<path d="M800 347.827C800 304.672 764.894 269.566 721.739 269.566H521.959C556.317 189.275 550.695 90.4984 550.441 86.9563C550.441 43.8016 515.334 8.69531 472.18 8.69531C429.025 8.69531 393.919 43.8016 393.919 86.9563C393.919 155.816 352.122 219.377 289.928 245.116L224.814 272.042C215.064 276.075 208.695 285.595 208.695 296.15V713.041C208.695 727.452 220.381 739.128 234.783 739.128H565.217C608.372 739.128 643.478 704.022 643.478 660.867C643.478 650.694 641.525 640.962 637.975 632.037C671.178 622.977 695.652 592.55 695.652 556.519C695.652 546.345 693.698 536.614 690.148 527.689C723.352 518.628 747.825 488.202 747.825 452.17C747.825 441.997 745.872 432.266 742.322 423.342C775.527 414.284 800 383.858 800 347.827Z" fill="#8B2CF5"/>
</svg>
