<svg width="192" height="192" viewBox="0 0 192 192" fill="none" xmlns="http://www.w3.org/2000/svg">
<circle cx="96" cy="96" r="95.5" fill="white" stroke="#7000FF"/>
<mask id="path-2-inside-1_37_179" fill="white">
<path d="M133.864 33.1939C125.848 32.6025 117.854 34.6062 111.064 38.9087C104.275 43.2112 99.0495 49.5841 96.1614 57.0855C93.2732 64.5868 92.8753 72.8184 95.0264 80.5633C97.1776 88.3083 101.764 95.1555 108.107 100.093C114.45 105.03 122.213 107.796 130.249 107.98C138.285 108.165 146.167 105.759 152.731 101.118C159.294 96.4771 164.189 89.8476 166.694 82.2097C169.198 74.5717 169.179 66.3305 166.638 58.7045L156.554 62.0641C158.373 67.5256 158.387 73.4277 156.594 78.8977C154.8 84.3678 151.294 89.1156 146.594 92.4392C141.893 95.7628 136.248 97.4859 130.493 97.3537C124.738 97.2215 119.178 95.241 114.636 91.7051C110.093 88.1691 106.809 83.2653 105.268 77.7187C103.727 72.172 104.012 66.2769 106.081 60.9047C108.149 55.5325 111.891 50.9684 116.754 47.8871C121.616 44.8058 127.341 43.3708 133.082 43.7943L133.864 33.1939Z"/>
</mask>
<path d="M133.864 33.1939C125.848 32.6025 117.854 34.6062 111.064 38.9087C104.275 43.2112 99.0495 49.5841 96.1614 57.0855C93.2732 64.5868 92.8753 72.8184 95.0264 80.5633C97.1776 88.3083 101.764 95.1555 108.107 100.093C114.45 105.03 122.213 107.796 130.249 107.98C138.285 108.165 146.167 105.759 152.731 101.118C159.294 96.4771 164.189 89.8476 166.694 82.2097C169.198 74.5717 169.179 66.3305 166.638 58.7045L156.554 62.0641C158.373 67.5256 158.387 73.4277 156.594 78.8977C154.8 84.3678 151.294 89.1156 146.594 92.4392C141.893 95.7628 136.248 97.4859 130.493 97.3537C124.738 97.2215 119.178 95.241 114.636 91.7051C110.093 88.1691 106.809 83.2653 105.268 77.7187C103.727 72.172 104.012 66.2769 106.081 60.9047C108.149 55.5325 111.891 50.9684 116.754 47.8871C121.616 44.8058 127.341 43.3708 133.082 43.7943L133.864 33.1939Z" fill="#7000FF" stroke="#7000FF" stroke-width="2" mask="url(#path-2-inside-1_37_179)"/>
<mask id="path-3-inside-2_37_179" fill="white">
<path d="M54.9022 152.548C62.6665 154.628 70.8941 154.155 78.3688 151.199C85.8434 148.242 92.1685 142.959 96.4088 136.13C100.649 129.302 102.58 121.29 101.915 113.279C101.251 105.269 98.0265 97.6843 92.719 91.6477C87.4114 85.611 80.3024 81.4422 72.4427 79.7577C64.5831 78.0732 56.39 78.9623 49.0746 82.2936C41.7593 85.6249 35.7099 91.2215 31.8209 98.2562C27.9318 105.291 26.4094 113.39 27.4788 121.357L38.0136 119.943C37.2477 114.237 38.338 108.437 41.1232 103.399C43.9084 98.3609 48.2408 94.3528 53.4798 91.9671C58.7188 89.5813 64.5864 88.9446 70.2152 90.151C75.844 91.3574 80.9352 94.3429 84.7363 98.6661C88.5374 102.989 90.8466 108.421 91.3225 114.158C91.7983 119.895 90.4157 125.633 87.3789 130.523C84.3421 135.414 79.8123 139.197 74.4592 141.314C69.1061 143.432 63.2138 143.771 57.6533 142.281L54.9022 152.548Z"/>
</mask>
<path d="M54.9022 152.548C62.6665 154.628 70.8941 154.155 78.3688 151.199C85.8434 148.242 92.1685 142.959 96.4088 136.13C100.649 129.302 102.58 121.29 101.915 113.279C101.251 105.269 98.0265 97.6843 92.719 91.6477C87.4114 85.611 80.3024 81.4422 72.4427 79.7577C64.5831 78.0732 56.39 78.9623 49.0746 82.2936C41.7593 85.6249 35.7099 91.2215 31.8209 98.2562C27.9318 105.291 26.4094 113.39 27.4788 121.357L38.0136 119.943C37.2477 114.237 38.338 108.437 41.1232 103.399C43.9084 98.3609 48.2408 94.3528 53.4798 91.9671C58.7188 89.5813 64.5864 88.9446 70.2152 90.151C75.844 91.3574 80.9352 94.3429 84.7363 98.6661C88.5374 102.989 90.8466 108.421 91.3225 114.158C91.7983 119.895 90.4157 125.633 87.3789 130.523C84.3421 135.414 79.8123 139.197 74.4592 141.314C69.1061 143.432 63.2138 143.771 57.6533 142.281L54.9022 152.548Z" fill="#7000FF" stroke="#7000FF" stroke-width="2" mask="url(#path-3-inside-2_37_179)"/>
</svg>
