<svg width="12" height="14" viewBox="0 0 12 14" fill="none" xmlns="http://www.w3.org/2000/svg">
<path d="M4.66831 10.5005H8.81646V11.5005H4.66831V10.5005ZM2.59424 10.5005H3.63128V11.5005H2.59424V10.5005ZM4.66831 8.00049H8.81646V9.00049H4.66831V8.00049ZM2.59424 8.00049H3.63128V9.00049H2.59424V8.00049ZM4.66831 5.50049H8.81646V6.50049H4.66831V5.50049ZM2.59424 5.50049H3.63128V6.50049H2.59424V5.50049Z" fill="white"/>
<path d="M10.3704 1.5H8.81481V1C8.81481 0.734784 8.70555 0.48043 8.51107 0.292893C8.31659 0.105357 8.05282 0 7.77778 0H3.62963C3.35459 0 3.09082 0.105357 2.89633 0.292893C2.70185 0.48043 2.59259 0.734784 2.59259 1V1.5H1.03704C0.761998 1.5 0.498223 1.60536 0.303741 1.79289C0.109259 1.98043 0 2.23478 0 2.5V13C0 13.2652 0.109259 13.5196 0.303741 13.7071C0.498223 13.8946 0.761998 14 1.03704 14H10.3704C10.6454 14 10.9092 13.8946 11.1037 13.7071C11.2981 13.5196 11.4074 13.2652 11.4074 13V2.5C11.4074 2.23478 11.2981 1.98043 11.1037 1.79289C10.9092 1.60536 10.6454 1.5 10.3704 1.5ZM3.62963 1H7.77778V3H3.62963V1ZM10.3704 13H1.03704V2.5H2.59259V4H8.81481V2.5H10.3704V13Z" fill="white"/>
</svg>
